<?xml version="1.0" ?>
<svg data-name="Layer 1" id="Layer_1" viewBox="0 0 64 64" xmlns="http://www.w3.org/2000/svg">
    <title />
    <rect height="13.053" style="fill:#4f5d75" transform="translate(-29.875 25.116) rotate(-45)" width="21.963"
        x="4.399" y="42.093" />
    <polygon points="21.65 28.06 16 33.71 18.53 36.24 27.76 45.47 30.29 48 35.94 42.35 21.65 28.06"
        style="fill:#ff6b6b" />
    <circle cx="41" cy="23" r="20" style="fill:#c5c6c6" />
    <circle cx="41" cy="23" r="15" style="fill:#f9c74f" />
    <path
        d="M11.523,61.707a1,1,0,0,0,1.414,0L27.76,46.884l1.823,1.823a1,1,0,0,0,1.414,0l5.266-5.266a21.087,21.087,0,1,0-15.7-15.7L15.293,33a1,1,0,0,0,0,1.414l1.823,1.823L2.293,51.063a1,1,0,0,0,0,1.414ZM41,4A19,19,0,1,1,22,23,19.021,19.021,0,0,1,41,4ZM21.2,29.926A21.074,21.074,0,0,0,34.074,42.8L30.29,46.586,17.414,33.71ZM18.53,37.654l7.816,7.816L12.23,59.586,4.414,51.77Z" />
    <path d="M41,39A16,16,0,1,0,25,23,16.019,16.019,0,0,0,41,39ZM41,9A14,14,0,1,1,27,23,14.015,14.015,0,0,1,41,9Z" />
    <path
        d="M36.535,25.291l9.093,3.638a1,1,0,0,0,1.347-.7l3-13-1.95-.45L45.288,26.638l-8.916-3.567a1,1,0,0,0-1.291.535l-3,7,1.838.788Z" />
</svg>